<svg id="svg-circle" xmlns="http://www.w3.org/2000/svg" viewBox="0 0 10.6 7.8">
    <path class="circle-big" d="M6.9 0C5.8 0 4.8.5 4.1 1.4c-.2-.1-.5-.2-.8-.2C1.5 1.2 0 2.7 0 4.5s1.5 3.3 3.3 3.3c.8 0 1.6-.3 2.2-.8.4.2.9.3 1.4.3 2 0 3.6-1.6 3.6-3.6S8.9 0 6.9 0zM5.3 5.7c-.6-.5-1-1.2-1-2 0-.4.1-.7.2-1.1.7.4 1.1 1.1 1.1 1.9 0 .5-.1.8-.3 1.2zm-2 1.1C2 6.8 1 5.8 1 4.5s1-2.3 2.3-2.3h.3c-.2.5-.3 1-.3 1.4 0 1.1.5 2.1 1.3 2.8-.4.3-.8.4-1.3.4zm3.6-.5c-.3 0-.5-.1-.8-.1.3-.5.4-1 .4-1.6 0-1.2-.6-2.2-1.5-2.8.5-.5 1.2-.8 1.9-.8 1.5 0 2.6 1.2 2.6 2.6.1 1.5-1.1 2.7-2.6 2.7z"/>
</svg>
