<svg id="flamingo" xmlns="http://www.w3.org/2000/svg" viewBox="0 0 35 48.7">
    <style>
        .st0{fill:#FFDB8F;} .st1{fill:#FEC871;} .st2{fill:#F16F64;} .st3{fill:#F05058;} .st4{fill:#F58A76;} .st5{fill:#FFFFFF;} .st6{fill:#333333;} .st7{fill:#D2D2CD;} .st8{fill:#232323;}
    </style>
    <path class="st0" d="M14 25.6c-2 2.3-4 4.5-6 6.8-.1.1 0 .2.1.2 4 .3 8 .6 12.1.9.2 0 .5-.3.2-.3-4-.3-8-.6-12.1-.9 0 .1.1.1.1.2 2-2.3 4-4.5 6-6.8.1-.2-.3-.2-.4-.1z"/>
    <path class="st0" d="M20.5 32.5c-.1 0-.2 0-.3.1-.3.2-.6.5-.9.7 0 0-.1.1 0 .1.2.3.5.7.7 1 .1.1.5 0 .4-.2l-.6-.9.9-.6c-.1-.1-.1-.2-.2-.2z"/>
    <path class="st1" d="M15.6 25.3c0 7.4-.1 14.7-.1 22.1 0 .1 0 0 .1-.1l-.3.3c-.2.2-.5.4-.7.6-.3.2.1.4.3.2.4-.3.8-.5 1.1-.8-.1 0-.3 0-.4-.1.1.3.2.7.3 1 .1.2.5.1.5-.1-.1-.4-.1-.7-.2-1.1-.1.1-.2.2-.4.2.5.2.9.5 1.4.7.2.1.5-.2.3-.3-.5-.2-.9-.5-1.4-.7-.1-.1-.4.1-.4.2.1.4.1.7.2 1.1.2 0 .3-.1.5-.1-.1-.3-.2-.7-.3-1 0-.2-.3-.1-.4-.1-.4.3-.8.5-1.1.8.1.1.2.2.3.2.3-.3 1.2-.6 1.2-1.1v-1.5-6.5c0-4.5.1-8.9.1-13.4v-.6c-.1-.2-.6-.1-.6.1z"/>
    <circle class="st0" cx="8.3" cy="32.4" r=".5"/>
    <circle class="st1" cx="15.8" cy="36.5" r=".5"/>
    <path class="st2" d="M3.7 3.4C4-.1 9.1-1.2 12 1.7c2.9 2.9 2 5.9-.7 8.4s-3.1 3.2-2.4 4.4c.6 1.3 3.2-6.9 11.8-5.6s10 7.9 9.7 10.1-6 1-8.1 4.7c-2.2 3.7-10.6 4-15-.2-4.4-4.1-3.9-9-1.6-11.5S9.8 7.8 9 6.5c-.7-1.2-2.5.7-2.5.7L3.7 3.4z"/>
    <path class="st3" d="M6.5 7.2S8.3 5.3 9 6.6c.4.8-.1 1.7-1.1 2.9 1.8-1.1 3.9-3.4 2.3-5-1.7-1.7-4.4.6-4.9 1.1l1.2 1.6zM30.3 19c0-.2.1-.4 0-.7-.1.1-.2.1-.2.2-2.1 2-4.9-.5-6.9 1.6s-4.7 3.4-11.8 3.2C6.6 23 4.7 19.6 4 17.4c.2 2 1.2 4.1 3.3 6.1 4.4 4.1 12.8 3.9 15 .2 2.1-3.7 7.7-2.6 8-4.7z"/>
    <path class="st4" d="M4.3 4.7s1-.9 1.5-2.1c.5-1.3 1.8-1.6 2.6-.5S5.1 5.4 5.1 5.4l-.8-.7z"/>
    <path class="st3" d="M20.7 8.9c-8.6-1.4-11.2 6.9-11.8 5.6-.6-1.3-.3-1.9 2.4-4.4 2.5-2.3 3.4-5 1.4-7.7.9 1.5 1.3 3.5-.7 5.4-4 3.7-5.1 5.5-4 7.4 1.2 1.9 1.9.4 2.6.4.7 0 3.8 2.8 6.2 2.6 2.4-.2 5.6 3 2.6 4.5-.2.1 5.1-1.4 5.5-1.2 2.4-1.1 5.2-.9 5.5-2.5.3-2.2-1.1-8.8-9.7-10.1z"/>
    <path class="st5" d="M3.7 3.4S.4 6.2 0 9.1c-.4 2.9 3 5.2 3 5.2s-.4-2.5.6-4c1-1.4 2.9-3.2 2.9-3.2S5.3 4.3 3.7 3.4z"/>
    <path class="st6" d="M3.8 10.1C2.6 9.2 1 8.9.1 8.9c-.1 0-.1.1-.1.2-.4 2.9 3 5.2 3 5.2s-.4-2.5.6-4l.2-.2z"/>
    <path class="st7" d="M6.5 7.2s-.4-.9-.9-1.8c-1.2 1-2.9 2.6-3.5 4-1 2.3.9 4.9.9 4.9s-.4-2.5.6-4c1-1.4 2.9-3.1 2.9-3.1z"/>
    <path class="st8" d="M3.8 10.1c-.5-.4-1-.7-1.6-.9 0 .1-.1.1-.1.2-1 2.3.9 4.9.9 4.9s-.4-2.5.6-4l.2-.2z"/>
    <path class="st4" d="M12.9 10.7c4.7-3.2 10.6-2.2 14.6-.4 4 1.8 6.9 5.1 6.9 6 0 .9-2-.8-2-.8s3 4.8 2.4 6.5c-.5 1.7-2.6-2.7-2.6-2.7s1.4 5.6.9 6.3c-.5.7-1.9-5-2.8-6 0 0 .6 3.1 0 3.5-.6.5-1-3.2-3.1-5.2 0 0 2.4 3.7 1 4.2s-1.3-3.2-6.1-4.9c0 0 2.5 1.9 1.8 2.4s-3.3-1.8-7.5-2.4c-4.2-.8-7.5-3.7-3.5-6.5z"/>
    <path class="st2" d="M31 17.7c.4 1.1 1.9-.9-.6-3.9-1.4-1.6-3.2-3.7-6.1-4.8-3.4-.8-7.3-.8-10.7 1.2-.6.8-.9 1.9.4 3 2.3 1.9 6.9 1.5 9.4 2.5 1.5.6.6-1.4-.8-1.8 0 0 4.3 1.4 5.5 3.2 1.1 1.7 1.4-.4.1-2.3 0 0 2.4 1.8 2.8 2.9z"/>
    <path class="st3" d="M16.4 10.3c-.2 1.6 2 .8 4.8 1.4 2.8.6 4.3 2.5 5 2.5.6 0-.2-1.3-.2-1.3s1.6 1.7 2.4.9c.8-.8-1.9-2.9-6.8-4.1-3.1-.7-5.2 0-5.2.6z"/>
    <circle class="st6" cx="7.1" cy="2.5" r=".5"/>
    <circle class="st5" cx="6.8" cy="2.4" r=".1"/>
</svg>
