<svg class="flamingo-icon-svg" xmlns="http://www.w3.org/2000/svg" viewBox="0 0 35.1 48.8">
    <style>
        .sti0{fill:#FEC871;stroke:#000000;stroke-width:0.1;stroke-miterlimit:10;} .sti1{fill:#FFFFFF;stroke:#000000;stroke-width:0.1;stroke-miterlimit:10;} .sti2{fill:#333333;} .sti3{fill:#F58A76;stroke:#000000;stroke-width:0.1;stroke-miterlimit:10;}
    </style>
    <path class="sti0" d="M20.5 32.6c-.1 0-.2 0-.3.1-.3.2-.5.4-.8.6l-3.3-.3v-7.1-.6c0-.3-.5-.2-.5 0v7.6c-2.3-.2-4.5-.3-6.8-.5 0-.1 0-.2-.1-.2 1.9-2.1 3.8-4.3 5.6-6.4.2-.2-.3-.2-.4-.1-1.9 2.1-3.7 4.2-5.6 6.3h-.1c-.3 0-.5.2-.5.5s.2.5.5.5c.2 0 .3-.1.4-.2 2.3.2 4.6.3 6.8.5v2.9c-.2.1-.3.2-.3.4s.1.3.3.4c0 3.5 0 7-.1 10.5-.1.1-.2.1-.3.2-.2.2-.5.4-.7.6-.3.2.1.4.3.2.1-.1.2-.1.2-.2.2-.1.4-.2.6-.4.1.2.1.5.2.7.1.2.5.1.5-.1s-.1-.4-.1-.6c.3.2.6.3.9.5.2.1.5-.2.3-.3-.4-.2-.9-.5-1.3-.7v-1.5-6.5-2.3c.1-.1.2-.2.2-.4s-.1-.3-.2-.4v-2.9c1.1.1 2.1.2 3.2.2.2.3.4.6.7 1 .1.1.5 0 .4-.2-.2-.2-.3-.5-.5-.7h.4c.2 0 .5-.3.2-.3h-.5c.2-.2.5-.4.7-.5.2-.2.1-.3 0-.3z"/>
    <path class="sti1" d="M3.8 3.4S.5 6.2.1 9.1c-.4 2.9 3 5.2 3 5.2s-.4-2.5.6-4c1-1.4 2.9-3.2 2.9-3.2S5.4 4.3 3.8 3.4z"/>
    <path class="sti2" d="M3.8 10.2C2.7 9.2 1.1 9 .1 8.9v.2c-.4 2.9 3 5.2 3 5.2s-.4-2.5.6-4l.1-.1z"/>
    <path class="sti3" d="M32.5 15.5s2 1.7 2 .8c0-.9-3-4.2-6.9-6C24.7 9 20.7 8.1 17 9c-1.6.3-2.8.9-3.9 1.7 0 0-.1 0-.1.1-.3.2-.6.5-.9.7-.8.7-1.4 1.5-1.9 2.1-.1.2-.3.3-.4.5-.2.3-.4.5-.6.6s-.2 0-.3-.2c-.2-.3-.3-.6-.3-.9 0-.3.1-.6.2-.9.1-.2.2-.3.3-.5.3-.4.7-.8 1.2-1.3.3-.3.6-.5.9-.9l.5-.5c.1-.1.1-.1.1-.2l.3-.3c.2.1.2 0 .3 0 .1-.1.2-.2.2-.3.1-.1.1-.1.1-.2.1-.1.1-.2.2-.3l.2-.2c.1-.1.1-.2.1-.3 0-.1.1-.2.1-.2 0-.1.1-.2.1-.3 0-.1.1-.2.1-.2 0-.1.1-.2.1-.3 0-.1.1-.2.1-.3 0-.1 0-.2.1-.3v-.3-.2-.3-.2-.3-.2c0-.2-.1-.4-.2-.7 0-.1 0-.1-.1-.2 0-.1-.1-.2-.1-.3 0-.1-.1-.1-.1-.2s-.1-.2-.2-.3c0 .1 0 .1-.1 0s-.1-.2-.2-.3c0-.1-.1-.1-.1-.2-.2-.3-.4-.5-.7-.8C9.2-1.2 4-.1 3.8 3.4l2.8 3.8s1.8-1.9 2.5-.6c.7 1.2-1.2 2.9-3.4 5.4-2.3 2.5-2.8 7.4 1.6 11.5s12.8 3.9 15 .2c.7-1.1 1.6-1.8 2.7-2.3.1 0 .2-.1.2-.1.1 0 .2-.1.3-.1.1 0 .2-.1.3-.1.2-.1.3-.1.5-.2.1 0 .3-.1.4-.1h.1c.5.8.9 1.4 1.5 1.2.6-.2.5-.9.3-1.6.1 0 .1 0 .2-.1.1 0 .1 0 .2-.1.8 1.6 1.1 3.1 1.5 2.8.6-.5 0-3.5 0-3.5 1 1.1 2.3 6.8 2.8 6 .5-.7-.9-6.3-.9-6.3s2.1 4.4 2.6 2.7c.5-1.6-2.5-6.4-2.5-6.4z"/>
    <circle class="sti2" cx="7.1" cy="2.6" r=".5"/>
</svg>
